<?xml version="1.0" encoding="UTF-8" standalone="no"?>
<!-- Created with Inkscape (http://www.inkscape.org/) -->

<svg
   xmlns:dc="http://purl.org/dc/elements/1.1/"
   xmlns:cc="http://creativecommons.org/ns#"
   xmlns:rdf="http://www.w3.org/1999/02/22-rdf-syntax-ns#"
   xmlns:svg="http://www.w3.org/2000/svg"
   xmlns="http://www.w3.org/2000/svg"
   xmlns:sodipodi="http://sodipodi.sourceforge.net/DTD/sodipodi-0.dtd"
   xmlns:inkscape="http://www.inkscape.org/namespaces/inkscape"
   id="svg2"
   version="1.1"
   inkscape:version="0.48.4 r9939"
   width="990"
   height="765"
   sodipodi:docname="6-logo.svg">
  <metadata
     id="metadata8">
    <rdf:RDF>
      <cc:Work
         rdf:about="">
        <dc:format>image/svg+xml</dc:format>
        <dc:type
           rdf:resource="http://purl.org/dc/dcmitype/StillImage" />
        <dc:title></dc:title>
      </cc:Work>
    </rdf:RDF>
  </metadata>
  <defs
     id="defs6" />
  <sodipodi:namedview
     pagecolor="#ffffff"
     bordercolor="#666666"
     borderopacity="1"
     objecttolerance="10"
     gridtolerance="10"
     guidetolerance="10"
     inkscape:pageopacity="0"
     inkscape:pageshadow="2"
     inkscape:window-width="1301"
     inkscape:window-height="744"
     id="namedview4"
     showgrid="false"
     inkscape:zoom="0.82086956"
     inkscape:cx="584.319"
     inkscape:cy="393.05386"
     inkscape:window-x="65"
     inkscape:window-y="24"
     inkscape:window-maximized="1"
     inkscape:current-layer="svg2" />
  <path
     style="fill:#000000"
     d="m 454.16949,665.75397 c -1.925,-0.21823 -8.225,-0.89541 -14,-1.50483 -24.14899,-2.54838 -54.3104,-10.32432 -77.53011,-19.9881 -87.90136,-36.58356 -152.87699,-115.42957 -171.44266,-208.04063 -5.24777,-26.17738 -6.94946,-62.41867 -4.12713,-87.89626 7.79685,-70.38329 39.41021,-132.52224 92.40819,-181.63679 36.88392,-34.18125 87.55598,-59.7385 137.58531,-69.393317 35.54146,-6.8589 78.11445,-6.83022 112.46775,0.0758 116.36291,23.392257 206.59161,116.171947 226.55441,232.959667 6.2537,36.5858 4.9908,78.97866 -3.4131,114.57254 -17.4329,73.83553 -63.573,137.86392 -128.6318,178.50171 -33.3331,20.82092 -72.7139,34.79308 -113.87086,40.40098 -10.91972,1.48788 -48.52385,2.79681 -56,1.94925 z m 17,-39.94239 0,-33.51257 -6.96872,3.50939 c -42.88297,21.59551 -98.76313,24.54425 -144.53128,7.62677 -10.52413,-3.89008 -22.19002,-9.35645 -30.37997,-14.23536 -7.27377,-4.33312 -6.14118,-3.16632 7.9702,8.21093 47.27039,38.11157 108.18573,60.82786 165.65977,61.77715 l 8.25,0.13626 0,-33.51257 z m 43.35558,30.45819 c 48.55898,-7.08567 98.02048,-29.06614 136.35538,-60.59579 5.659,-4.65437 10.289,-8.66778 10.289,-8.9187 0,-0.25092 -1.7212,0.63036 -3.825,1.95841 -11.4384,7.22074 -33.541,16.47803 -48.175,20.17717 -21.6131,5.46336 -51.7681,7.06955 -72.3806,3.85533 -19.59651,-3.05578 -38.32685,-8.72445 -52.63425,-15.92954 l -6.98511,-3.51764 0,33.16497 0,33.16498 11.75,-0.6687 c 6.4625,-0.36779 17.98501,-1.57851 25.60558,-2.69049 z M 412.16949,604.90978 c 10.43594,-1.84185 24.20961,-5.58054 33.40821,-9.06825 13.60379,-5.15797 13.69913,-5.04661 -5.48546,-6.40708 -66.11041,-4.68821 -124.61902,-20.10979 -182.67275,-48.14852 -10.0375,-4.8479 -18.25,-8.58835 -18.25,-8.31212 0,1.52212 10.66477,14.11334 18.94892,22.37179 27.35946,27.27459 62.64632,45.14326 98.55108,49.9046 4.4,0.58349 9.35,1.25268 11,1.4871 6.08825,0.86498 36.26648,-0.37438 44.5,-1.82752 z m 180.09286,0.0309 c 32.9589,-5.6356 64.8139,-21.11625 89.4071,-43.44946 7.3571,-6.68099 18.8384,-19.25976 23.3577,-25.59034 l 3.3576,-4.70336 -8.3576,4.50182 c -31.4981,16.96637 -77.3264,33.62536 -116.8577,42.47872 -27.2387,6.10035 -44.2742,8.62034 -74.34758,10.9979 l -20.84762,1.64819 10.84762,4.23941 c 12.75444,4.98461 26.68628,8.73941 37.84758,10.20037 4.4,0.57593 9.35,1.23895 11,1.47337 6.0012,0.85261 36.2196,-0.36488 44.5929,-1.79663 z M 456.67871,581.04247 c -36.30584,-26.92875 -60.22796,-61.70991 -71.40273,-103.81477 -2.33277,-8.78954 -4.95475,-24.94499 -5.34015,-32.90355 -0.14649,-3.025 -0.73289,-5.5 -1.30312,-5.5 -1.24491,0 -143.41604,81.78255 -143.41837,82.5 -0.005,1.56978 37.08103,19.43684 56.28559,27.11684 50.78983,20.3111 111.06597,33.01618 164.66956,34.70925 l 3.5,0.11055 -2.99078,-2.21832 z m 46.66123,1.26669 c 68.95321,-4.5655 131.06441,-21.68511 193.13771,-53.23422 9.5321,-4.84479 15.4457,-8.39696 14.8952,-8.94739 -0.502,-0.50205 -33.2657,-19.57622 -72.8081,-42.38706 l -71.8953,-41.47425 -0.2582,5.27896 c -1.388,28.36882 -12.0262,61.85699 -27.5504,86.72624 -10.89124,17.44732 -29.19065,37.49959 -44.74905,49.03544 -4.46353,3.3095 -7.66233,6.01727 -7.10846,6.01727 0.55388,0 7.90534,-0.45675 16.3366,-1.01499 z m -32.17045,-48.48501 0,-47.5 -4.88953,0 c -6.25374,0 -19.86199,-2.57694 -27.59805,-5.22613 -18.09561,-6.19679 -36.07302,-18.27552 -47.08963,-31.63875 -5.0637,-6.14231 -5.12016,-5.98785 -2.87515,7.86488 4.96264,30.62167 16.23066,57.06298 34.60222,81.19686 6.28777,8.25996 19.45339,21.96086 26.85014,27.94179 5.04153,4.07653 19.99456,14.86135 20.60509,14.86135 0.2172,0 0.39491,-21.375 0.39491,-47.5 z m 17.13654,38.40338 c 39.0039,-29.5613 64.30432,-73.29799 69.65002,-120.40338 l 0.7943,-7 -8.5173,8.83747 c -17.5181,18.17659 -41.81759,30.10696 -65.73547,32.27434 l -7.32809,0.66405 0,46.36207 c 0,26.28589 0.3839,46.36207 0.88654,46.36207 0.4876,0 5.1001,-3.19348 10.25,-7.09662 z M 309.46524,470.82415 c 53.59724,-30.88425 67.34577,-39.2081 66.06814,-40 -27.36544,-16.96176 -52.30644,-44.55223 -67.38642,-74.54481 -9.44204,-18.77929 -17.66703,-48.38569 -18.04528,-64.95519 -0.0998,-4.37063 -0.37234,-3.95376 -9.48092,14.5 -29.56365,59.89524 -45.6678,121.63922 -49.42566,189.5 -0.56345,10.175 -1.02471,19.08856 -1.02503,19.80791 -3.7e-4,0.84745 2.04386,0.14333 5.80654,-2 3.19392,-1.81935 36.2638,-20.85791 73.48863,-42.30791 z m 404.74681,17.5 c -4.8212,-65.87303 -19.8864,-122.3739 -48.355,-181.35221 l -9.0999,-18.8522 -2.1806,13.8522 c -4.1857,26.58896 -11.9168,47.79722 -25.5521,70.09543 -12.0895,19.77039 -31.6345,40.29746 -51.1211,53.68978 l -7.5904,5.21662 72.1783,41.6754 72.1782,41.6754 0.3385,-5.25021 c 0.1862,-2.88761 -0.172,-12.22521 -0.7959,-20.75021 z m 14.3516,3.90497 c 7.5398,-20.30313 10.7618,-38.71744 10.7441,-61.40497 -0.022,-28.2856 -6.1244,-54.47294 -18.406,-78.98568 -7.88,-15.72772 -21.6425,-34.27643 -34.9609,-47.11949 -9.2767,-8.94566 -21.7714,-19.15276 -21.7714,-17.78547 0,0.39944 1.9556,4.36324 4.3458,8.80845 23.2165,43.17827 42.2231,103.71984 49.6286,158.08219 1.5391,11.2985 4.0071,39.8637 4.0607,47 0.043,5.73423 0.1075,5.88505 1.4557,3.40497 0.7759,-1.42727 2.9824,-6.82727 4.9034,-12 z m -504.45487,-3.40497 c 4.52492,-62.63901 18.32245,-117.34672 44.00969,-174.5 2.84274,-6.325 7.23093,-15.28626 9.75153,-19.91391 l 4.58293,-8.41391 -4.77287,3.41391 c -21.06199,15.0651 -42.71479,41.32338 -53.96109,65.43842 -12.15253,26.05823 -16.92604,47.62321 -16.92821,76.47549 -0.002,26.75444 3.46863,43.58096 14.9112,72.29313 0.39304,0.98622 0.8353,1.66122 0.98281,1.5 0.14751,-0.16122 0.78832,-7.49313 1.42401,-16.29313 z m 247.06071,-20 0,-10.5 -7.51077,0 c -17.21451,0 -51.01225,-8.01366 -65.58894,-15.55156 -1.59516,-0.82489 -2.90029,-1.08939 -2.90029,-0.58777 0,2.07236 18.26115,17.99381 25.84252,22.53145 13.76526,8.23888 32.74176,14.24015 45.90748,14.51814 l 4.25,0.0897 0,-10.5 z m 21.34292,8.44117 c 16.68582,-3.3822 30.76069,-10.16724 44.82364,-21.60806 7.1737,-5.83607 15.7965,-15.45407 12.0643,-13.45665 -13.5778,7.26663 -49.95038,16.12354 -66.21432,16.12354 l -6.01654,0 0,10.5 0,10.5 2.59292,0 c 1.4261,0 7.1636,-0.92647 12.75,-2.05883 z m -21.34292,-58.94117 c 0,-18.15 -0.21871,-33 -0.48602,-33 -0.41652,0 -78.39596,44.78364 -79.36341,45.57846 -0.70282,0.5774 10.61144,5.80713 20.34943,9.40601 16.82948,6.21969 38.60752,10.64113 53.75,10.91249 l 5.75,0.10304 0,-33 z m 31,30.55351 c 15.24555,-2.47384 32.23706,-7.87728 46.82336,-14.89025 7.1862,-3.45505 7.2799,-3.54845 5,-4.98601 -4.4364,-2.79737 -74.21362,-42.88978 -75.5148,-43.38909 -1.06191,-0.40749 -1.30856,5.76418 -1.30856,32.74237 l 0,33.24451 8.25,-0.67113 c 4.5375,-0.36912 12.075,-1.2918 16.75,-2.0504 z M 201.49116,400.82415 c 3.80731,-22.78753 12.61547,-46.29162 24.82063,-66.23248 12.85324,-20.99971 34.27536,-43.1203 54.93536,-56.72652 l 5.09504,-3.35548 -4.33635,-2.51764 c -22.02305,-12.78635 -53.20466,-30.66788 -53.4783,-30.66788 -0.18774,0 -2.85092,5.00396 -5.91818,11.1199 -14.60533,29.12221 -23.14902,56.63158 -28.06968,90.3801 -1.25741,8.62402 -1.76503,18.61129 -1.80433,35.5 -0.0541,23.23499 0.61055,31.33489 4.18473,51 l 1.72665,9.5 0.67036,-14.5 c 0.3687,-7.975 1.34703,-18.55 2.17407,-23.5 z m 550.73379,4.07908 c 1.4825,-15.73726 0.7079,-50.74576 -1.44,-65.08954 -4.4977,-30.03496 -12.3783,-55.5979 -25.6904,-83.33361 l -6.8846,-14.34407 -3.2702,1.97236 c -1.7986,1.0848 -13.6203,7.92191 -26.2703,15.19358 -12.65,7.27168 -24.0616,13.89399 -25.3591,14.71626 l -2.3591,1.49502 3.3067,2.01089 c 18.3975,11.18818 42.2406,35.5982 54.7755,56.07781 17.2114,28.12008 25.762,56.05205 27.7719,90.72222 l 0.7247,12.5 1.7389,-9.5 c 0.9564,-5.225 2.2866,-15.31441 2.956,-22.42092 z m -324.12809,-2.57908 c 21.46672,-12.375 39.03881,-22.725 39.04909,-23 0.0156,-0.41697 -55.73589,-32.92195 -57.93885,-33.7803 -1.78344,-0.69488 -12.56699,25.54891 -16.50174,40.1601 -4.425,16.43164 -7.20895,40.37485 -4.58738,39.45353 0.52167,-0.18333 18.51216,-10.45833 39.97888,-22.83333 z m 130.65179,14.75 c -2.122,-22.64713 -8.3856,-45.50557 -17.3229,-63.21729 l -3.7563,-7.44421 -28.21972,16.20575 c -15.52087,8.91316 -28.21518,16.43075 -28.20959,16.70575 0.009,0.45939 76.94791,44.93724 77.80861,44.9808 0.2085,0.0106 0.073,-3.2433 -0.3001,-7.2308 z m -188.18014,-5.27162 c -3.82567,-12.0471 -5.69864,-26.2608 -4.98439,-37.82572 0.98639,-15.97135 3.53268,-25.94359 10.93174,-42.81281 l 1.60539,-3.66016 -37.72588,-21.78141 C 319.64614,293.74266 301.30838,283.1426 299.6448,282.16675 l -3.02469,-1.77428 0.72898,9.83443 c 2.98654,40.29088 21.72501,80.117 51.71433,109.91195 7.94585,7.89436 23.04423,20.43269 23.81563,19.7775 0.11526,-0.0979 -0.92448,-3.74911 -2.31054,-8.11382 z m 211.95724,1.12998 c 29.5584,-23.19909 51.9077,-57.42903 61.1184,-93.60836 3.0548,-11.99901 5.7462,-28.85164 5.3381,-33.42563 l -0.3128,-3.50523 -40.1761,23.15799 -40.1761,23.158 1.3704,2.64991 c 3.8992,7.54037 8.5305,23.02837 9.9586,33.30403 1.9505,14.03502 -0.025,35.22227 -4.4964,48.21815 -1.0892,3.16574 -1.9804,5.91043 -1.9804,6.09933 0,1.02112 1.9798,-0.25864 9.3563,-6.04819 z M 385.59659,383.32415 c 2.37808,-9.12848 7.67183,-23.09254 12.49946,-32.97156 2.25713,-4.6189 3.75953,-8.73506 3.33866,-9.14703 -0.42087,-0.41197 -4.36075,-2.79349 -8.75528,-5.29227 l -7.99006,-4.54323 -1.92019,3.72705 c -3.05583,5.93126 -7.47797,19.71676 -8.66684,27.01782 -2.42138,14.87013 -1.15831,32.94717 3.28738,47.04915 l 2.09961,6.66007 2.20697,-13 c 1.21383,-7.15 2.96896,-15.925 3.90029,-19.5 z m 184.61736,19.98325 c 5.4866,-21.09749 2.6926,-49.28824 -6.6545,-67.1405 l -1.89,-3.60965 -8.6574,4.94383 -8.6575,4.94383 4.0198,8.68962 c 7.8719,17.01615 13.6066,35.41628 15.7983,50.68962 1.6126,11.23728 2.1033,13.06114 3.0559,11.35889 0.4286,-0.76581 1.772,-5.20985 2.9854,-9.87564 z m -99.04446,-76.09024 c 0,-43.00511 -0.1145,-46.06305 -1.70199,-45.45387 -4.25708,1.63359 -18.67349,12.99686 -28.6213,22.55981 -10.00429,9.61725 -23.60465,26.09346 -27.0691,32.79295 l -1.41495,2.73623 28.65367,16.65159 c 15.75952,9.15838 28.99117,16.68956 29.40367,16.73594 0.4125,0.0464 0.75,-20.6638 0.75,-46.02265 z m 34.3031,30.45993 c 14.95829,-8.60589 27.57266,-15.97918 28.03196,-16.38509 1.956,-1.72865 -13.24102,-21.97639 -26.28377,-35.01914 -8.7957,-8.7957 -22.38321,-19.95137 -27.80129,-22.82551 l -2.25,-1.19357 0,45.53519 c 0,25.04435 0.24889,45.53518 0.5531,45.53518 0.3042,0 12.7917,-7.04118 27.75,-15.64706 z m 45.94686,-26.60415 c 3.7125,-2.1872 6.75,-4.30833 6.75,-4.71362 0,-1.73078 -10.2918,-14.08575 -17.1468,-20.58404 -11.97965,-11.35639 -27.37812,-19.94114 -43.05491,-24.00341 -9.545,-2.47336 -9.89748,-1.51851 -1.72012,4.65965 14.35733,10.84725 34.17233,32.81407 41.99753,46.55814 2.683,4.71242 1.6727,4.8594 13.1743,-1.91672 z m -133.95136,-12.1326 c 7.83047,-10.29757 23.2096,-25.71595 32.9514,-33.03551 4.2625,-3.20265 7.75,-5.95357 7.75,-6.11315 0,-0.15959 -2.8125,0.3563 -6.25,1.14642 -22.74551,5.22809 -42.62047,17.5529 -56.94981,35.31557 -3.74011,4.63624 -6.80019,8.69022 -6.80019,9.00885 0,0.31863 3.9375,2.88823 8.75,5.71021 l 8.75,5.13089 2.9018,-4.63974 c 1.59598,-2.55185 5.59954,-8.18745 8.8968,-12.52354 z m 206.96356,-29.95847 22.7621,-13.11929 -6.7621,-3.42021 c -43.6226,-22.06384 -98.9605,-23.53741 -146.15142,-3.89179 l -7.46965,3.10962 11.29288,2.7766 c 25.52858,6.27675 49.98929,22.99915 63.56979,43.45901 l 3.5128,5.29224 18.2417,-10.54345 c 10.033,-5.79889 28.4847,-16.44712 41.0039,-23.66273 z m -229.37102,16.07958 c 16.29734,-17.09962 36.27859,-27.88743 60.10886,-32.45259 l 4.5,-0.86206 -10.6677,-4.20861 c -22.41782,-8.84426 -41.53987,-12.52488 -65.3323,-12.57517 -28.30351,-0.0598 -51.26389,4.87574 -74.75,16.06825 -4.2625,2.03133 -7.74114,3.94073 -7.73031,4.2431 0.0108,0.30238 18.09678,10.95968 40.19099,23.68289 l 40.17129,23.1331 3.05534,-4.6331 c 1.68044,-2.54821 6.38467,-8.12632 10.45383,-12.39581 z m 292.60882,-52.53956 c 14.85,-8.5352 27.0933,-15.57711 27.2073,-15.6487 0.114,-0.0716 -3.936,-6.26676 -9,-13.76704 -29.7954,-44.13015 -70.6745,-78.73455 -118.2073,-100.06315 -8.98,-4.0295 -26.6468,-10.71885 -28.3087,-10.71885 -0.3572,0 2.7474,1.98845 6.8992,4.41879 36.0416,21.09792 65.2832,56.19261 79.2237,95.08121 6.5114,18.16427 10.6739,38.34383 10.6818,51.78518 0,6.71811 0.026,6.77355 2.254,5.60814 1.2375,-0.64738 14.4,-8.16039 29.25,-16.69558 z m -216.49996,-67.72342 0,-84.52568 -2.91944,1.5097 c -6.02774,3.11706 -37.99528,25.06208 -48.58056,33.34949 -32.18344,25.197 -62.18416,55.24476 -87.0557,87.19217 -8.31423,10.6796 -25.57466,35.51517 -28.36295,40.81066 l -1.21665,2.31067 3.18046,-1.64468 c 5.38275,-2.78353 21.46144,-8.31671 31.7341,-10.92069 16.61124,-4.21074 32.62408,-5.85445 50.72074,-5.20648 28.48043,1.01977 49.9241,6.21688 74.47179,18.04906 4.10948,1.9808 7.59698,3.60146 7.75,3.60146 0.15301,0 0.27821,-38.03656 0.27821,-84.52568 z m -181.5602,77.77568 c 2.80928,-27.67376 7.18376,-44.43474 17.30518,-66.30539 14.62104,-31.59358 42.18422,-61.61129 73.46312,-80.00506 3.13945,-1.84618 5.55116,-3.51363 5.35935,-3.70544 -0.7194,-0.71939 -20.5471,7.19454 -33.31602,13.2976 -45.96051,21.96739 -84.71315,55.50249 -112.91395,97.71154 -4.03561,6.04024 -7.33748,11.27712 -7.33748,11.63753 0,0.62894 54.7862,32.83767 56.17804,33.02699 0.37293,0.0507 0.94072,-2.49527 1.26176,-5.65777 z m 210.57223,-4.25444 c 9.60247,-3.54054 24.33716,-7.33314 35.48793,-9.13434 10.7111,-1.73018 43.66,-1.73415 54.5,-0.007 16.7343,2.66694 37.502,8.78966 48.0278,14.15952 2.1409,1.09221 4.1284,1.98584 4.4167,1.98584 0.757,0 -11.0954,-18.1484 -19.0183,-29.12084 -25.2938,-35.0289 -57.0946,-68.62824 -90.4262,-95.54007 -15.72639,-12.69747 -52.73136,-38.33867 -55.32972,-38.33867 -0.36863,0 -0.67024,37.32072 -0.67024,82.93493 l 0,82.93493 7.44504,-3.43982 c 4.09478,-1.8919 11.09992,-4.78742 15.56699,-6.43448 z m 147.41243,-8.49919 c -11.5504,-76.88758 -70.4316,-136.42432 -147.42446,-149.06583 -13.04578,-2.141997 -13.19035,-1.913857 -2.97112,4.68831 57.37788,37.0692 111.38858,91.46182 147.52248,148.56549 2.1523,3.40139 4.0146,6.08302 4.1385,5.95919 0.1238,-0.12384 -0.4456,-4.69006 -1.2654,-10.14716 z m -341.55866,-3.32125 c 34.71004,-52.7544 87.78204,-105.53876 140.42443,-139.66335 5.92923,-3.84352 10.36583,-7.126417 9.85913,-7.295317 -1.55199,-0.51733 -20.20391,2.722517 -28.14936,4.889557 -48.85553,13.32485 -89.08057,45.65378 -111.84995,89.89399 -9.04024,17.56489 -14.50681,34.12343 -17.58916,53.27846 -1.83284,11.39001 -1.86881,12.87344 -0.25208,10.39666 0.65515,-1.00368 4.0558,-6.17868 7.55699,-11.5 z"
     id="path2987"
     inkscape:connector-curvature="0"
     inkscape:export-filename="/home/david/Documents/Projects/NEBCOM/6-logo.png"
     inkscape:export-xdpi="90"
     inkscape:export-ydpi="90" />
</svg>
