<?xml version="1.0" encoding="UTF-8" standalone="no"?>
<!-- Created with Inkscape (http://www.inkscape.org/) -->

<svg
   xmlns:dc="http://purl.org/dc/elements/1.1/"
   xmlns:cc="http://creativecommons.org/ns#"
   xmlns:rdf="http://www.w3.org/1999/02/22-rdf-syntax-ns#"
   xmlns:svg="http://www.w3.org/2000/svg"
   xmlns="http://www.w3.org/2000/svg"
   xmlns:sodipodi="http://sodipodi.sourceforge.net/DTD/sodipodi-0.dtd"
   xmlns:inkscape="http://www.inkscape.org/namespaces/inkscape"
   width="1052.3622"
   height="744.09448"
   id="svg2"
   version="1.1"
   inkscape:version="0.48.4 r9939"
   sodipodi:docname="8-individual home.svg"
   inkscape:export-filename="/home/david/Documents/Projects/NEBCOM/V8/8-community home medium.png"
   inkscape:export-xdpi="90"
   inkscape:export-ydpi="90">
  <defs
     id="defs4">
    <clipPath
       id="clip44">
      <path
         inkscape:connector-curvature="0"
         id="path486"
         d="m 0,0 0,608 1290,0 0,-608 z" />
    </clipPath>
  </defs>
  <sodipodi:namedview
     id="base"
     pagecolor="#ffffff"
     bordercolor="#666666"
     borderopacity="1.0"
     inkscape:pageopacity="0.0"
     inkscape:pageshadow="2"
     inkscape:zoom="0.25"
     inkscape:cx="-463.59016"
     inkscape:cy="926.15742"
     inkscape:document-units="cm"
     inkscape:current-layer="layer2"
     showgrid="true"
     showborder="false"
     inkscape:window-width="1301"
     inkscape:window-height="744"
     inkscape:window-x="65"
     inkscape:window-y="24"
     inkscape:window-maximized="1"
     inkscape:snap-to-guides="false"
     inkscape:snap-grids="true">
    <inkscape:grid
       type="xygrid"
       id="grid2985"
       empspacing="5"
       visible="true"
       enabled="true"
       snapvisiblegridlinesonly="true"
       dotted="false"
       units="cm"
       spacingx="1cm"
       spacingy="1cm" />
  </sodipodi:namedview>
  <metadata
     id="metadata7">
    <rdf:RDF>
      <cc:Work
         rdf:about="">
        <dc:format>image/svg+xml</dc:format>
        <dc:type
           rdf:resource="http://purl.org/dc/dcmitype/StillImage" />
        <dc:title></dc:title>
      </cc:Work>
    </rdf:RDF>
  </metadata>
  <g
     inkscape:label="Layer 1"
     inkscape:groupmode="layer"
     id="layer1"
     transform="translate(0,-308.2677)"
     sodipodi:insensitive="true">
    <g
       id="g4048"
       style="opacity:0.3"
       transform="matrix(3,0,0,3,1768.6194,-1904.4257)">
      <g
         transform="matrix(15.231908,0,0,15.231908,-7245.1402,-3103.3177)"
         id="g3916">
        <g
           style="stroke-width:0.2;stroke-linecap:square;stroke-linejoin:miter;stroke-miterlimit:4;stroke-dasharray:none;stroke-dashoffset:0"
           id="misc"
           transform="translate(-2.8770649,0.62407081)" />
        <g
           style="stroke-width:0.26367831;stroke-linecap:square;stroke-linejoin:miter;stroke-miterlimit:4;stroke-dasharray:none;stroke-dashoffset:0"
           transform="matrix(0.7585,0,0,0.7585,-2.8585624,0.4760506)"
           id="g488"
           clip-path="url(#clip44)">
          <!-- drawing style -->
        </g>
        <g
           style="stroke-width:0.26367831;stroke-linecap:square;stroke-linejoin:miter;stroke-miterlimit:4;stroke-dasharray:none;stroke-dashoffset:0"
           transform="matrix(0.52792993,0,0,0.52792993,115.03379,89.001546)"
           id="g21">
          <clipPath
             id="clip2">
            <path
               d="m 0,0 0,608 1290,0 0,-608 z"
               id="path24"
               inkscape:connector-curvature="0" />
          </clipPath>
          <g
             style="stroke-width:0.26367831;stroke-miterlimit:4;stroke-dasharray:none"
             clip-path="url(#clip2)"
             id="g26">
            <g
               id="g28"
               style="fill:none;stroke:#000000;stroke-width:0.26367831;stroke-linecap:round;stroke-linejoin:round;stroke-miterlimit:4;stroke-opacity:1;stroke-dasharray:none">
              <path
                 style="stroke-width:0.26367831;stroke-miterlimit:4;stroke-dasharray:none"
                 d="m 603.17,297.97 c 0,4.13 -3.34,7.47 -7.47,7.47 -4.13,0 -7.48,-3.34 -7.48,-7.47 0,-4.13 3.35,-7.48 7.48,-7.48 4.13,0 7.47,3.35 7.47,7.48 z"
                 id="path30"
                 inkscape:connector-curvature="0" />
            </g>
            <!-- drawing style -->
          </g>
          <!-- clip2 -->
        </g>
        <g
           style="stroke-width:0.26367831;stroke-linecap:square;stroke-linejoin:miter;stroke-miterlimit:4;stroke-dasharray:none;stroke-dashoffset:0"
           transform="matrix(0.52792993,0,0,0.52792993,115.03379,89.001546)"
           id="g32">
          <clipPath
             id="clip3">
            <path
               d="m 0,0 0,608 1290,0 0,-608 z"
               id="path35"
               inkscape:connector-curvature="0" />
          </clipPath>
          <g
             style="stroke-width:0.26367831;stroke-miterlimit:4;stroke-dasharray:none"
             clip-path="url(#clip3)"
             id="g37">
            <g
               id="g39"
               style="fill:none;stroke:#000000;stroke-width:0.26367831;stroke-linecap:round;stroke-linejoin:round;stroke-miterlimit:4;stroke-opacity:1;stroke-dasharray:none">
              <path
                 style="stroke-width:0.26367831;stroke-miterlimit:4;stroke-dasharray:none"
                 d="m 610.65,297.97 c 0,4.13 -3.35,7.47 -7.48,7.47 -4.13,0 -7.47,-3.34 -7.47,-7.47 0,-4.13 3.34,-7.48 7.47,-7.48 4.13,0 7.48,3.35 7.48,7.48 z"
                 id="path41"
                 inkscape:connector-curvature="0" />
            </g>
            <!-- drawing style -->
          </g>
          <!-- clip3 -->
        </g>
        <g
           style="stroke-width:0.26367831;stroke-linecap:square;stroke-linejoin:miter;stroke-miterlimit:4;stroke-dasharray:none;stroke-dashoffset:0"
           transform="matrix(0.52792993,0,0,0.52792993,115.03379,89.001546)"
           id="g43">
          <clipPath
             id="clip4">
            <path
               d="m 0,0 0,608 1290,0 0,-608 z"
               id="path46"
               inkscape:connector-curvature="0" />
          </clipPath>
          <g
             style="stroke-width:0.26367831;stroke-miterlimit:4;stroke-dasharray:none"
             clip-path="url(#clip4)"
             id="g48">
            <g
               id="g50"
               style="fill:none;stroke:#000000;stroke-width:0.26367831;stroke-linecap:round;stroke-linejoin:round;stroke-miterlimit:4;stroke-opacity:1;stroke-dasharray:none">
              <path
                 style="stroke-width:0.26367831;stroke-miterlimit:4;stroke-dasharray:none"
                 d="m 606.91,291.49 c 0,4.13 -3.35,7.48 -7.48,7.48 -4.12,0 -7.47,-3.35 -7.47,-7.48 0,-4.12 3.35,-7.47 7.47,-7.47 4.13,0 7.48,3.35 7.48,7.47 z"
                 id="path52"
                 inkscape:connector-curvature="0" />
            </g>
            <!-- drawing style -->
          </g>
          <!-- clip4 -->
        </g>
        <g
           style="stroke-width:0.26367831;stroke-linecap:square;stroke-linejoin:miter;stroke-miterlimit:4;stroke-dasharray:none;stroke-dashoffset:0"
           transform="matrix(0.52792993,0,0,0.52792993,115.03379,89.001546)"
           id="g54">
          <clipPath
             id="clip5">
            <path
               d="m 0,0 0,608 1290,0 0,-608 z"
               id="path57"
               inkscape:connector-curvature="0" />
          </clipPath>
          <g
             style="stroke-width:0.26367831;stroke-miterlimit:4;stroke-dasharray:none"
             clip-path="url(#clip5)"
             id="g59">
            <g
               id="g61"
               style="fill:none;stroke:#000000;stroke-width:0.26367831;stroke-linecap:round;stroke-linejoin:round;stroke-miterlimit:4;stroke-opacity:1;stroke-dasharray:none">
              <path
                 style="stroke-width:0.26367831;stroke-miterlimit:4;stroke-dasharray:none"
                 d="m 609.64,301.7 c 0,11.28 -9.14,20.42 -20.42,20.42 -11.27,0 -20.42,-9.14 -20.42,-20.42 0,-11.27 9.15,-20.42 20.42,-20.42 11.28,0 20.42,9.15 20.42,20.42 z"
                 id="path63"
                 inkscape:connector-curvature="0" />
            </g>
            <!-- drawing style -->
          </g>
          <!-- clip5 -->
        </g>
        <g
           style="stroke-width:0.26367831;stroke-linecap:square;stroke-linejoin:miter;stroke-miterlimit:4;stroke-dasharray:none;stroke-dashoffset:0"
           transform="matrix(0.52792993,0,0,0.52792993,115.03379,89.001546)"
           id="g65">
          <clipPath
             id="clip6">
            <path
               d="m 0,0 0,608 1290,0 0,-608 z"
               id="path68"
               inkscape:connector-curvature="0" />
          </clipPath>
          <g
             style="stroke-width:0.26367831;stroke-miterlimit:4;stroke-dasharray:none"
             clip-path="url(#clip6)"
             id="g70">
            <g
               id="g72"
               style="fill:none;stroke:#000000;stroke-width:0.26367831;stroke-linecap:round;stroke-linejoin:round;stroke-miterlimit:4;stroke-opacity:1;stroke-dasharray:none">
              <path
                 style="stroke-width:0.26367831;stroke-miterlimit:4;stroke-dasharray:none"
                 d="m 619.85,284.02 c 0,11.28 -9.14,20.42 -20.42,20.42 -11.27,0 -20.42,-9.14 -20.42,-20.42 0,-11.28 9.15,-20.42 20.42,-20.42 11.28,0 20.42,9.14 20.42,20.42 z"
                 id="path74"
                 inkscape:connector-curvature="0" />
            </g>
            <!-- drawing style -->
          </g>
          <!-- clip6 -->
        </g>
        <g
           style="stroke-width:0.26367831;stroke-linecap:square;stroke-linejoin:miter;stroke-miterlimit:4;stroke-dasharray:none;stroke-dashoffset:0"
           transform="matrix(0.52792993,0,0,0.52792993,115.03379,89.001546)"
           id="g76">
          <clipPath
             id="clip7">
            <path
               d="m 0,0 0,608 1290,0 0,-608 z"
               id="path79"
               inkscape:connector-curvature="0" />
          </clipPath>
          <g
             style="stroke-width:0.26367831;stroke-miterlimit:4;stroke-dasharray:none"
             clip-path="url(#clip7)"
             id="g81">
            <g
               id="g83"
               style="fill:none;stroke:#000000;stroke-width:0.26367831;stroke-linecap:round;stroke-linejoin:round;stroke-miterlimit:4;stroke-opacity:1;stroke-dasharray:none">
              <path
                 style="stroke-width:0.26367831;stroke-miterlimit:4;stroke-dasharray:none"
                 d="m 630.06,301.7 c 0,11.28 -9.14,20.42 -20.42,20.42 -11.27,0 -20.42,-9.14 -20.42,-20.42 0,-11.27 9.15,-20.42 20.42,-20.42 11.28,0 20.42,9.15 20.42,20.42 z"
                 id="path85"
                 inkscape:connector-curvature="0" />
            </g>
            <!-- drawing style -->
          </g>
          <!-- clip7 -->
        </g>
        <g
           style="stroke-width:0.26367831;stroke-linecap:square;stroke-linejoin:miter;stroke-miterlimit:4;stroke-dasharray:none;stroke-dashoffset:0"
           transform="matrix(0.52792993,0,0,0.52792993,115.03379,89.001546)"
           id="g87">
          <clipPath
             id="clip8">
            <path
               d="m 0,0 0,608 1290,0 0,-608 z"
               id="path90"
               inkscape:connector-curvature="0" />
          </clipPath>
          <g
             style="stroke-width:0.26367831;stroke-miterlimit:4;stroke-dasharray:none"
             clip-path="url(#clip8)"
             id="g92">
            <g
               id="g94"
               style="fill:none;stroke:#000000;stroke-width:0.26367831;stroke-linecap:round;stroke-linejoin:round;stroke-miterlimit:4;stroke-opacity:1;stroke-dasharray:none">
              <path
                 style="stroke-width:0.26367831;stroke-miterlimit:4;stroke-dasharray:none"
                 d="m 631.64,295.81 c 0,17.79 -14.42,32.21 -32.21,32.21 -17.78,0 -32.21,-14.42 -32.21,-32.21 0,-17.79 14.43,-32.21 32.21,-32.21 17.79,0 32.21,14.42 32.21,32.21 z"
                 id="path96"
                 inkscape:connector-curvature="0" />
            </g>
            <!-- drawing style -->
          </g>
          <!-- clip8 -->
        </g>
        <g
           style="stroke-width:0.26367831;stroke-linecap:square;stroke-linejoin:miter;stroke-miterlimit:4;stroke-dasharray:none;stroke-dashoffset:0"
           transform="matrix(0.52792993,0,0,0.52792993,115.03379,89.001546)"
           id="g98">
          <clipPath
             id="clip9">
            <path
               d="m 0,0 0,608 1290,0 0,-608 z"
               id="path101"
               inkscape:connector-curvature="0" />
          </clipPath>
          <g
             style="stroke-width:0.26367831;stroke-miterlimit:4;stroke-dasharray:none"
             clip-path="url(#clip9)"
             id="g103">
            <g
               id="g105"
               style="fill:none;stroke:#000000;stroke-width:0.26367831;stroke-linecap:round;stroke-linejoin:round;stroke-miterlimit:4;stroke-opacity:1;stroke-dasharray:none">
              <path
                 style="stroke-width:0.26367831;stroke-miterlimit:4;stroke-dasharray:none"
                 d="m 611.22,295.81 c 0,6.51 -5.27,11.79 -11.79,11.79 -6.51,0 -11.79,-5.28 -11.79,-11.79 0,-6.51 5.28,-11.79 11.79,-11.79 6.52,0 11.79,5.28 11.79,11.79 z"
                 id="path107"
                 inkscape:connector-curvature="0" />
            </g>
            <!-- drawing style -->
          </g>
          <!-- clip9 -->
        </g>
        <g
           style="stroke-width:0.26367831;stroke-linecap:square;stroke-linejoin:miter;stroke-miterlimit:4;stroke-dasharray:none;stroke-dashoffset:0"
           transform="matrix(0.52792993,0,0,0.52792993,115.03379,89.001546)"
           id="g109">
          <clipPath
             id="clip10">
            <path
               d="m 0,0 0,608 1290,0 0,-608 z"
               id="path112"
               inkscape:connector-curvature="0" />
          </clipPath>
          <g
             style="stroke-width:0.26367831;stroke-miterlimit:4;stroke-dasharray:none"
             clip-path="url(#clip10)"
             id="g114">
            <g
               id="g116"
               style="fill:none;stroke:#000000;stroke-width:0.26367831;stroke-linecap:round;stroke-linejoin:round;stroke-miterlimit:4;stroke-opacity:1;stroke-dasharray:none">
              <path
                 style="stroke-width:0.26367831;stroke-miterlimit:4;stroke-dasharray:none"
                 d="m 603.75,295.81 c 0,2.38 -1.93,4.32 -4.32,4.32 -2.38,0 -4.31,-1.94 -4.31,-4.32 0,-2.38 1.93,-4.32 4.31,-4.32 2.39,0 4.32,1.94 4.32,4.32 z"
                 id="path118"
                 inkscape:connector-curvature="0" />
            </g>
            <!-- drawing style -->
          </g>
          <!-- clip10 -->
        </g>
        <g
           style="stroke-width:0.26367831;stroke-linecap:square;stroke-linejoin:miter;stroke-miterlimit:4;stroke-dasharray:none;stroke-dashoffset:0"
           transform="matrix(0.52792993,0,0,0.52792993,115.03379,89.001546)"
           id="g120">
          <clipPath
             id="clip11">
            <path
               d="m 0,0 0,608 1290,0 0,-608 z"
               id="path123"
               inkscape:connector-curvature="0" />
          </clipPath>
          <g
             style="stroke-width:0.26367831;stroke-miterlimit:4;stroke-dasharray:none"
             clip-path="url(#clip11)"
             id="g125">
            <g
               id="g127"
               style="fill:none;stroke:#000000;stroke-width:0.26367831;stroke-linecap:round;stroke-linejoin:round;stroke-miterlimit:4;stroke-opacity:1;stroke-dasharray:none">
              <path
                 style="stroke-width:0.26367831;stroke-miterlimit:4;stroke-dasharray:none"
                 d="m 627.33,311.91 c 0,30.82 -24.98,55.79 -55.79,55.79 -30.81,0 -55.79,-24.97 -55.79,-55.79 0,-30.81 24.98,-55.78 55.79,-55.78 30.81,0 55.79,24.97 55.79,55.78 z"
                 id="path129"
                 inkscape:connector-curvature="0" />
            </g>
            <!-- drawing style -->
          </g>
          <!-- clip11 -->
        </g>
        <g
           style="stroke-width:0.26367831;stroke-linecap:square;stroke-linejoin:miter;stroke-miterlimit:4;stroke-dasharray:none;stroke-dashoffset:0"
           transform="matrix(0.52792993,0,0,0.52792993,115.03379,89.001546)"
           id="g131">
          <clipPath
             id="clip12">
            <path
               d="m 0,0 0,608 1290,0 0,-608 z"
               id="path134"
               inkscape:connector-curvature="0" />
          </clipPath>
          <g
             style="stroke-width:0.26367831;stroke-miterlimit:4;stroke-dasharray:none"
             clip-path="url(#clip12)"
             id="g136">
            <g
               id="g138"
               style="fill:none;stroke:#000000;stroke-width:0.26367831;stroke-linecap:round;stroke-linejoin:round;stroke-miterlimit:4;stroke-opacity:1;stroke-dasharray:none">
              <path
                 style="stroke-width:0.26367831;stroke-miterlimit:4;stroke-dasharray:none"
                 d="m 655.22,263.6 c 0,30.81 -24.97,55.79 -55.79,55.79 -30.81,0 -55.78,-24.98 -55.78,-55.79 0,-30.81 24.97,-55.79 55.78,-55.79 30.82,0 55.79,24.98 55.79,55.79 z"
                 id="path140"
                 inkscape:connector-curvature="0" />
            </g>
            <!-- drawing style -->
          </g>
          <!-- clip12 -->
        </g>
        <g
           style="stroke-width:0.26367831;stroke-linecap:square;stroke-linejoin:miter;stroke-miterlimit:4;stroke-dasharray:none;stroke-dashoffset:0"
           transform="matrix(0.52792993,0,0,0.52792993,115.03379,89.001546)"
           id="g142">
          <clipPath
             id="clip13">
            <path
               d="m 0,0 0,608 1290,0 0,-608 z"
               id="path145"
               inkscape:connector-curvature="0" />
          </clipPath>
          <g
             style="stroke-width:0.26367831;stroke-miterlimit:4;stroke-dasharray:none"
             clip-path="url(#clip13)"
             id="g147">
            <g
               id="g149"
               style="fill:none;stroke:#000000;stroke-width:0.26367831;stroke-linecap:round;stroke-linejoin:round;stroke-miterlimit:4;stroke-opacity:1;stroke-dasharray:none">
              <path
                 style="stroke-width:0.26367831;stroke-miterlimit:4;stroke-dasharray:none"
                 d="m 683.12,311.91 c 0,30.82 -24.98,55.79 -55.79,55.79 -30.81,0 -55.79,-24.97 -55.79,-55.79 0,-30.81 24.98,-55.78 55.79,-55.78 30.81,0 55.79,24.97 55.79,55.78 z"
                 id="path151"
                 inkscape:connector-curvature="0" />
            </g>
            <!-- drawing style -->
          </g>
          <!-- clip13 -->
        </g>
        <g
           style="stroke-width:0.26367831;stroke-linecap:square;stroke-linejoin:miter;stroke-miterlimit:4;stroke-dasharray:none;stroke-dashoffset:0"
           transform="matrix(0.52792993,0,0,0.52792993,115.03379,89.001546)"
           id="g153">
          <clipPath
             id="clip14">
            <path
               d="m 0,0 0,608 1290,0 0,-608 z"
               id="path156"
               inkscape:connector-curvature="0" />
          </clipPath>
          <g
             style="stroke-width:0.26367831;stroke-miterlimit:4;stroke-dasharray:none"
             clip-path="url(#clip14)"
             id="g158">
            <g
               id="g160"
               style="fill:none;stroke:#000000;stroke-width:0.26367831;stroke-linecap:round;stroke-linejoin:round;stroke-miterlimit:4;stroke-opacity:1;stroke-dasharray:none">
              <path
                 style="stroke-width:0.26367831;stroke-miterlimit:4;stroke-dasharray:none"
                 d="m 687.43,295.81 c 0,48.6 -39.39,88 -88,88 -48.6,0 -87.99,-39.4 -87.99,-88 0,-48.6 39.39,-88 87.99,-88 48.61,0 88,39.4 88,88 z"
                 id="path162"
                 inkscape:connector-curvature="0" />
            </g>
            <!-- drawing style -->
          </g>
          <!-- clip14 -->
        </g>
        <path
           inkscape:transform-center-y="-0.00044787846"
           inkscape:transform-center-x="0.0001517069"
           transform="matrix(0.65046378,0,0,0.65046378,869.43319,37.743604)"
           d="m -673.22833,248.0315 2e-5,70.8661 61.37186,-35.43303 -61.37184,35.43307 61.37184,35.43308 -61.37186,-35.43304 -2e-5,70.86611 -3e-5,-70.86611 -61.37185,35.43303 61.37183,-35.43307 -61.37183,-35.43307 61.37185,35.43303 z"
           inkscape:randomized="0"
           inkscape:rounded="0"
           inkscape:flatsided="false"
           sodipodi:arg2="-1.0471975"
           sodipodi:arg1="-1.5707963"
           sodipodi:r2="4.5167599e-05"
           sodipodi:r1="70.866142"
           sodipodi:cy="318.89764"
           sodipodi:cx="-673.22833"
           sodipodi:sides="6"
           id="path4046"
           style="fill:#ffffff;fill-opacity:1;stroke:#000000;stroke-width:0.17881393;stroke-linejoin:miter;stroke-miterlimit:4;stroke-opacity:1;stroke-dasharray:none;stroke-dashoffset:0"
           sodipodi:type="star" />
      </g>
    </g>
  </g>
  <g
     inkscape:groupmode="layer"
     id="layer2"
     inkscape:label="Layer">
    <path
       sodipodi:type="arc"
       style="fill:#ffffff;fill-opacity:1;stroke:#000000;stroke-width:0.47062996;stroke-linejoin:miter;stroke-miterlimit:4;stroke-opacity:1;stroke-dasharray:none;stroke-dashoffset:0"
       id="path4041-4-7"
       sodipodi:cx="-246.07317"
       sodipodi:cy="-320.80832"
       sodipodi:rx="103.94469"
       sodipodi:ry="103.94469"
       d="m -142.12848,-320.80832 a 103.94469,103.94469 0 1 1 -207.88937,0 103.94469,103.94469 0 1 1 207.88937,0 z"
       transform="matrix(7.52886,0,0,7.52886,1603.7488,2095.9269)" />
    <path
       sodipodi:type="arc"
       style="fill:#ffffff;fill-opacity:1;stroke:#000000;stroke-width:1.29537778;stroke-linejoin:miter;stroke-miterlimit:4;stroke-opacity:1;stroke-dasharray:none;stroke-dashoffset:0"
       id="path4041-4"
       sodipodi:cx="-246.07317"
       sodipodi:cy="-320.80832"
       sodipodi:rx="103.94469"
       sodipodi:ry="103.94469"
       d="m -142.12848,-320.80832 a 103.94469,103.94469 0 1 1 -207.88937,0 103.94469,103.94469 0 1 1 207.88937,0 z"
       transform="matrix(2.7353465,0,0,2.7353465,424.1938,558.12785)" />
    <path
       sodipodi:type="arc"
       style="fill:#ffffff;fill-opacity:1;stroke:#000000;stroke-width:3.49653258;stroke-linejoin:miter;stroke-miterlimit:4;stroke-opacity:1;stroke-dasharray:none;stroke-dashoffset:0"
       id="path4041"
       sodipodi:cx="-246.07317"
       sodipodi:cy="-320.80832"
       sodipodi:rx="103.94469"
       sodipodi:ry="103.94469"
       d="m -142.12848,-320.80832 a 103.94469,103.94469 0 1 1 -207.88937,0 103.94469,103.94469 0 1 1 207.88937,0 z"
       transform="matrix(1.0133774,0,0,1.0133774,0.4634009,5.7058063)" />
  </g>
</svg>
